<?xml version="1.0" standalone="no"?>
<!DOCTYPE svg PUBLIC "-//W3C//DTD SVG 20010904//EN"
 "http://www.w3.org/TR/2001/REC-SVG-20010904/DTD/svg10.dtd">
<svg version="1.0" xmlns="http://www.w3.org/2000/svg"
 width="512.000000pt" height="512.000000pt" viewBox="0 0 512.000000 512.000000"
 preserveAspectRatio="xMidYMid meet">
<metadata>
Created by potrace 1.14, written by Peter Selinger 2001-2017
</metadata>
<g transform="translate(0.000000,512.000000) scale(0.100000,-0.100000)"
fill="#000000" stroke="none">
<path d="M1094 3990 c-135 -19 -255 -91 -338 -201 -30 -42 -79 -140 -91 -184
-4 -16 -9 -34 -11 -40 -22 -77 -32 -181 -33 -348 -1 -107 -4 -209 -6 -227 -23
-181 -133 -276 -330 -284 l-30 -1 -2 -147 -2 -148 47 0 c68 0 175 -37 221 -76
81 -70 100 -144 102 -416 2 -204 15 -314 50 -408 26 -70 88 -174 131 -221 82
-89 211 -153 325 -162 l52 -4 6 39 c4 21 6 39 5 40 -1 2 3 15 9 29 5 15 13 46
16 70 4 24 9 47 11 51 3 5 -9 8 -26 8 -83 0 -153 78 -184 208 -21 82 -25 145
-26 362 -2 214 -16 297 -67 393 -39 74 -136 166 -211 201 -34 16 -62 32 -62
35 0 3 28 19 61 35 82 39 176 133 216 216 53 107 62 165 63 426 1 252 4 290
27 372 25 88 111 164 178 156 35 -3 35 -5 1 151 -9 39 -16 72 -16 75 0 8 -27
8 -86 0z"/>
<path d="M3940 3991 c0 -3 -7 -37 -15 -76 -9 -38 -18 -83 -21 -99 -2 -16 -7
-33 -10 -38 -3 -4 1 -9 8 -10 85 -9 107 -19 146 -63 63 -71 74 -120 78 -350 7
-365 10 -406 34 -475 25 -76 64 -140 119 -198 38 -40 126 -101 166 -116 16 -6
10 -11 -35 -34 -54 -27 -172 -134 -199 -182 -68 -117 -79 -177 -81 -424 0
-111 -2 -213 -5 -227 -2 -13 -6 -44 -9 -69 -18 -143 -96 -262 -177 -268 -17
-1 -35 -5 -39 -7 -4 -3 -1 -31 6 -62 14 -60 17 -73 29 -134 6 -35 8 -36 48
-33 148 11 276 82 369 204 55 73 118 224 134 325 11 69 12 105 14 292 2 238
21 315 94 385 34 33 121 67 188 73 35 4 69 8 76 10 10 4 12 38 10 147 l-3 143
-72 6 c-123 11 -215 67 -255 156 -30 67 -37 129 -39 344 -2 285 -30 410 -121
551 -92 142 -219 218 -390 232 -27 2 -48 1 -48 -3z"/>
<path d="M2937 3844 c-1 -1 -33 -4 -72 -7 -259 -23 -448 -120 -563 -289 -78
-116 -110 -240 -115 -443 l-2 -70 -228 0 c-125 0 -228 -2 -228 -5 -4 -16 -4
-307 -1 -317 3 -10 58 -13 231 -13 l227 0 0 -710 c-1 -391 1 -710 4 -711 16
-3 427 -4 438 -1 9 3 12 155 12 713 l0 709 315 0 315 0 1 23 c0 12 1 86 2 164
2 119 0 142 -13 145 -8 2 -151 3 -317 2 l-303 0 1 85 c1 190 78 295 249 342
81 21 322 13 456 -16 18 -4 21 1 23 38 1 23 4 58 6 77 2 19 7 81 10 136 l7
101 -33 7 c-19 3 -56 9 -84 12 -27 3 -52 7 -55 9 -8 5 -277 24 -283 19z"/>
</g>
</svg>
